@startuml
'En un colegio secundario se realizan actividades académicas enmarcadas según el
'protocolo aprobado para funcionamiento bajo un contexto adverso producto de la
'pandemia del COVID-19.
'Cada día asisten varias personas al establecimiento, cada una realiza sus actividades y
'se retira del mismo en diferentes horarios. De un análisis llevado a cabo por el equipo
'directivo del colegio para registrar las entradas y salidas de quienes asisten al
'establecimiento, se detectó que son estudiantes, profesores y personal administrativo
'quienes asisten regularmente.
'Los estudiantes tienen un número de legajo académico y estudian. Los profesores
'tienen un legajo de profesor, un título, años de antigüedad laboral y se encargan de
'dar clases. Por último el personal administrativo tiene un número de legajo de
'administrativo, un cargo y realiza actividades de administración.

class Persona{
    - nombre: String
    - horaLlegada : Double
    - horaSalida : Double
    - numeroLegajo:String
    - cargo:String
    + realizarActividad() : void
}

class Estudiante{
    + realizarActividad() : void
}

class Profesor{
    - antiguedad : integer
    - titulo : String
    + realizarActividad() : void
}

class Administrativo{
    - cargo : StringEjercicioColegio.puml
    + realizarActividad() : void
}

Estudiante --|> Persona
Profesor --|> Persona
Administrativo --|> Persona

@enduml