@startuml
hide circle
skinparam classAttributeIconSize 0
skinparam backgroundColor White
skinparam RoundCorner 10
skinparam Shadowing true

skinparam class {
    ArrowColor DarkBlue
    BackgroundColor LightBlue
    BorderColor DarkBlue
}

skinparam note {
    BackgroundColor LightYellow
    BorderColor DarkBlue
}

title Diagrama de clase - Banco Digital

abstract Tarjeta {
    - nombreTitular : String
    - apellidoTitular : String
    - numero : int
    - diaVencimiento : int
    - mesVencimiento : int
    + Tarjeta(nombre, apellido, diaVencimiento, mesVencimiento, numero) : void
    + {abstract} pagar(importe : int) : void
}

class TarjetaDeCredito {
    - limiteBanco : int
    - limiteCuotas : int
    - interesCuota : float
    - saldoConsumido : double
    - saldoImpago : double
    + TarjetaDeCredito(nombre, apellido, diaVencimiento, mesVencimiento, numero, limiteBanco, limiteCuotas, interesCuota) : void
    + pagar(importe : int) : void
    + pagarResumen(importe : int) : int
}

class TarjetaDeDebito {
    + pagar(importe : int) : void
}

Tarjeta <|-- TarjetaDeCredito
Tarjeta <|-- TarjetaDeDebito
@enduml